#!OML:ASF F:\VICON\USERDATA\INSTALL\rory3\rory3.ASF
:FULLY-SPECIFIED
:DEGREES
1257
root 2.24884 17.9075 11.1059 -171.179 -17.9805 -180.319
lowerback 6.84754 -0.689827 -4.4454
upperback 0.219668 -1.23513 1.59399
thorax -3.48726 -0.540417 4.27793
lowerneck -18.9882 0.163151 -11.581
upperneck 33.3742 1.98943 0.879662
head 14.6343 -1.24766 2.5204
rclavicle 2.49475e-014 1.03368e-014
rhumerus -28.6905 5.55863 -81.8363
rradius 53.384
rwrist 16.8903
rhand -17.5912 3.39537
rfingers 7.12502
rthumb 8.66482 -26.4068
lclavicle 2.49475e-014 1.03368e-014
lhumerus -23.7786 5.23188 68.2348
lradius 68.4587
lwrist 4.26565
lhand -19.6858 25.6164
lfingers 7.12502
lthumb 6.64311 55.4922
rfemur -32.5878 -0.754361 12.9146
rtibia 39.1829
rfoot -17.6137 -5.84725
rtoes -7.959
lfemur -8.532 -6.48076 -19.6185
ltibia 13.4907
lfoot -10.3737 -7.95598
ltoes -2.81394
1258
root 2.2441 17.916 11.1676 -171.153 -17.8153 -180.291
lowerback 6.75836 -0.625331 -4.49091
upperback 0.0873979 -1.14861 1.52031
thorax -3.58449 -0.489814 4.21849
lowerneck -18.7994 0.167011 -11.5541
upperneck 33.2978 1.88279 1.10148
head 14.557 -1.24983 2.58797
rclavicle -1.80397e-014 -2.78299e-015
rhumerus -28.5044 5.75741 -82.0246
rradius 53.2672
rwrist 16.8076
rhand -17.6276 3.2565
rfingers 7.12502
rthumb 8.62972 -26.5471
lclavicle -1.80397e-014 -2.78299e-015
lhumerus -23.9307 5.37686 67.6642
lradius 68.6753
lwrist 3.62469
lhand -18.0557 24.063
lfingers 7.12502
lthumb 8.21662 53.8832
rfemur -32.399 -1.01904 13.1733
rtibia 40.208
rfoot -17.9212 -5.8183
rtoes -7.24227
lfemur -9.14937 -6.22533 -19.705
ltibia 14.254
lfoot -10.675 -7.86841
ltoes -3.30327
1259
root 2.23913 17.9315 11.2282 -171.141 -17.5992 -180.272
lowerback 6.68856 -0.555561 -4.54616
upperback -0.0129417 -1.05753 1.44827
thorax -3.65963 -0.438594 4.16582
lowerneck -18.675 0.14949 -11.5592
upperneck 33.1883 1.77345 1.33137
head 14.4802 -1.2515 2.66445
rclavicle 2.24627e-014 -1.26228e-014
rhumerus -28.3178 5.95218 -82.2028
rradius 53.2102
rwrist 16.7232
rhand -17.9285 3.19847
rfingers 7.12502
rthumb 8.33933 -26.6169
lclavicle 2.24627e-014 -1.26228e-014
lhumerus -24.0535 5.14928 67.2828
lradius 69.0365
lwrist 4.34131
lhand -18.9287 24.8655
lfingers 7.12502
lthumb 7.37394 54.717
rfemur -32.186 -1.25575 13.4324
rtibia 41.1455
rfoot -18.1283 -5.86287
rtoes -7.23736
lfemur -9.85903 -5.56429 -19.8798
ltibia 15.2025
lfoot -11.2944 -7.91731
ltoes -4.25311
1260
root 2.23255 17.9296 11.2882 -171.204 -17.3567 -180.284
lowerback 6.66783 -0.474684 -4.60917
upperback 0.0429962 -0.955841 1.38935
thorax -3.60053 -0.390522 4.12924
lowerneck -18.9229 0.0741589 -11.5558
upperneck 33.0378 1.71188 1.45086
head 14.4697 -1.23419 2.70722
rclavicle 2.90971e-014 8.24956e-015
rhumerus -28.0609 6.02456 -82.29
rradius 53.2425
rwrist 16.8039
rhand -18.1168 3.38311
rfingers 7.12502
rthumb 8.15757 -26.4394
lclavicle 2.90971e-014 8.24956e-015
lhumerus -23.9383 5.49802 66.8134
lradius 69.0848
lwrist 3.83802
lhand -17.7315 23.7794
lfingers 7.12502
lthumb 8.52947 53.5871
rfemur -31.8754 -1.49344 13.6536
rtibia 42.0934
rfoot -18.2969 -5.76679
rtoes -7.24441
lfemur -10.4225 -5.05413 -20.0519
ltibia 16.079
lfoot -11.8353 -7.98498
ltoes -5.07566
1261
root 2.22638 17.9201 11.3453 -171.295 -17.1079 -180.292
lowerback 6.68757 -0.386016 -4.6783
upperback 0.068358 -0.845256 1.35609
thorax -3.59648 -0.33544 4.12337
lowerneck -19.1517 0.0137766 -11.5426
upperneck 32.9278 1.7006 1.43066
head 14.4737 -1.2218 2.69806
rclavicle 2.38542e-015 -1.63003e-014
rhumerus -28.1546 6.01815 -82.3539
rradius 53.5
rwrist 17.0269
rhand -18.1807 3.40407
rfingers 7.12502
rthumb 8.09592 -26.4209
lclavicle 2.38542e-015 -1.63003e-014
lhumerus -23.9968 5.37966 66.6194
lradius 69.3381
lwrist 4.75374
lhand -19.3005 25.3012
lfingers 7.12502
lthumb 7.01511 55.1649
rfemur -31.4784 -1.64733 13.8504
rtibia 43.0463
rfoot -18.5425 -5.50482
rtoes -7.02328
lfemur -10.8596 -5.00445 -20.1394
ltibia 16.8521
lfoot -12.1933 -7.83858
ltoes -5.47539
1262
root 2.22227 17.9116 11.402 -171.351 -16.8592 -180.31
lowerback 6.70504 -0.30632 -4.77391
upperback -0.03121 -0.748219 1.30642
thorax -3.71975 -0.279299 4.11785
lowerneck -18.9659 0.0016024 -11.5262
upperneck 32.7612 1.63971 1.48177
head 14.3603 -1.22452 2.7029
rclavicle 2.11209e-014 5.06901e-015
rhumerus -28.4502 5.96001 -82.4869
rradius 53.7042
rwrist 17.2507
rhand -18.3202 3.38203
rfingers 7.12502
rthumb 7.96127 -26.448
lclavicle 2.11209e-014 5.06901e-015
lhumerus -24.3461 5.3974 66.264
lradius 69.4974
lwrist 4.79989
lhand -19.2672 25.3931
lfingers 7.12502
lthumb 7.04718 55.2558
rfemur -31.1779 -1.80517 14.0631
rtibia 44.0022
rfoot -18.6425 -5.39147
rtoes -5.88284
lfemur -11.2104 -5.06608 -20.2117
ltibia 17.3948
lfoot -12.4724 -7.68502
ltoes -5.24652
1263
root 2.21823 17.9089 11.4593 -171.427 -16.6531 -180.222
lowerback 6.65664 -0.270697 -4.72826
upperback -0.102698 -0.695825 1.26124
thorax -3.77347 -0.250729 4.03971
lowerneck -18.713 0.0482367 -11.4832
upperneck 32.5511 1.61799 1.62613
head 14.2063 -1.1901 2.74731
rclavicle 5.26407e-014 -1.20762e-014
rhumerus -28.3096 5.94741 -82.687
rradius 53.4722
rwrist 17.321
rhand -18.7601 3.39838
rfingers 7.12502
rthumb 7.53671 -26.4474
lclavicle 5.26407e-014 -1.20762e-014
lhumerus -24.574 5.66726 65.8347
lradius 69.37
lwrist 4.57462
lhand -18.7303 24.7528
lfingers 7.12502
lthumb 7.56543 54.5975
rfemur -30.9368 -2.0312 14.42
rtibia 44.9248
rfoot -18.5946 -5.27107
rtoes -5.32584
lfemur -11.4628 -4.90534 -20.1875
ltibia 17.6751
lfoot -12.6675 -7.72171
ltoes -4.87737
1264
root 2.20885 17.9153 11.5079 -171.541 -16.3433 -180.145
lowerback 6.4859 -0.227413 -4.61572
upperback -0.0180302 -0.624631 1.1603
thorax -3.59877 -0.225183 3.8604
lowerneck -18.903 0.0847871 -11.2332
upperneck 32.4042 1.66617 1.60285
head 14.1791 -1.11936 2.70656
rclavicle 6.48659e-014 4.79568e-015
rhumerus -27.8139 5.91084 -82.928
rradius 53.0311
rwrist 17.339
rhand -19.2247 3.5658
rfingers 7.12502
rthumb 7.08826 -26.2955
lclavicle 6.48659e-014 4.79568e-015
lhumerus -24.5842 5.98882 65.4366
lradius 69.1634
lwrist 4.71809
lhand -19.306 25.1908
lfingers 7.12502
lthumb 7.00979 55.0548
rfemur -30.6248 -2.25453 14.7684
rtibia 45.7991
rfoot -18.6467 -5.13997
rtoes -6.69298
lfemur -11.556 -4.6047 -20.2144
ltibia 17.8558
lfoot -12.9345 -7.70118
ltoes -3.95972
1265
root 2.19715 17.9188 11.5503 -171.685 -15.9081 -180.125
lowerback 6.21505 -0.130668 -4.51086
upperback 0.148209 -0.480098 1.01244
thorax -3.29025 -0.168613 3.629
lowerneck -19.2715 0.0297542 -11.1364
upperneck 32.3705 1.6207 1.69039
head 14.2473 -1.09859 2.72471
rclavicle 5.17058e-014 3.90736e-015
rhumerus -27.3689 5.7689 -83.1779
rradius 52.5718
rwrist 17.2993
rhand -19.7118 3.58962
rfingers 7.12502
rthumb 6.61803 -26.287
lclavicle 5.17058e-014 3.90736e-015
lhumerus -24.4706 6.27343 65.1042
lradius 68.8595
lwrist 4.81942
lhand -19.8318 26.1525
lfingers 7.12502
lthumb 6.50224 56.0327
rfemur -30.2481 -2.48258 15.0462
rtibia 46.6444
rfoot -18.7225 -4.86001
rtoes -7.4975
lfemur -11.5416 -4.3989 -20.3019
ltibia 18.0172
lfoot -13.1576 -7.53045
ltoes -3.92689
1266
root 2.19231 17.9094 11.5967 -171.802 -15.4906 -180.164
lowerback 6.09896 -0.00716392 -4.57139
upperback 0.194915 -0.316882 0.929826
thorax -3.19246 -0.0907415 3.56148
lowerneck -19.3442 0.0103083 -11.0282
upperneck 32.2904 1.61398 1.59678
head 14.2311 -1.0915 2.66756
rclavicle -1.0312e-015 -2.08724e-015
rhumerus -27.7014 5.29685 -83.3164
rradius 52.8384
rwrist 17.5493
rhand -19.7547 3.49132
rfingers 7.12502
rthumb 6.57664 -26.3866
lclavicle -1.0312e-015 -2.08724e-015
lhumerus -24.5063 6.5248 64.9563
lradius 68.5319
lwrist 4.92217
lhand -20.0424 27.3476
lfingers 7.12502
lthumb 6.29888 57.234
rfemur -29.9581 -2.68884 15.2626
rtibia 47.5014
rfoot -18.7874 -4.43374
rtoes -7.23594
lfemur -11.5537 -4.43427 -20.386
ltibia 18.1049
lfoot -13.0641 -7.33524
ltoes -4.29883
1267
root 2.18968 17.8968 11.6461 -171.798 -15.1197 -180.374
lowerback 6.06252 0.0961131 -4.84069
upperback 0.143012 -0.199094 0.843167
thorax -3.23684 -0.0260508 3.61314
lowerneck -19.3576 0.0257166 -10.8461
upperneck 32.2336 1.65527 1.3744
head 14.2119 -1.07905 2.55219
rclavicle 1.00014e-014 -5.54112e-015
rhumerus -27.9517 5.00208 -83.4099
rradius 52.8593
rwrist 17.6227
rhand -19.8731 3.43702
rfingers 7.12502
rthumb 6.4623 -26.4444
lclavicle 1.00014e-014 -5.54112e-015
lhumerus -24.7851 6.6832 64.9014
lradius 68.4274
lwrist 5.35823
lhand -21.0455 29.8928
lfingers 7.12502
lthumb 5.3304 59.8057
rfemur -29.7772 -2.9095 15.3013
rtibia 48.3632
rfoot -18.9432 -3.9229
rtoes -6.69847
lfemur -11.6681 -4.36947 -20.6484
ltibia 18.1698
lfoot -13.0628 -7.31909
ltoes -5.11279
